<svg width="266" height="173" viewBox="0 0 266 173" fill="none" xmlns="http://www.w3.org/2000/svg">
<path d="M220.064 172.552V169.741C220.859 169.67 221.528 169.547 222.057 169.361C222.896 169.073 223.557 168.663 224.051 168.133C224.75 167.394 225.294 166.394 225.684 165.142C226.074 163.885 226.272 162.369 226.272 160.576C226.272 158.106 225.89 156.204 225.124 154.873C224.357 153.543 223.432 152.651 222.336 152.2C221.806 151.982 221.043 151.835 220.064 151.764V148.953C221.079 149.006 221.91 149.109 222.537 149.265C223.808 149.577 224.898 150.142 225.801 150.958C226.972 152.015 227.845 153.357 228.427 155.006C229.015 156.646 229.303 158.518 229.303 160.629C229.303 162.422 229.105 164.015 228.706 165.407C228.316 166.791 227.808 167.948 227.189 168.855C226.571 169.762 225.902 170.477 225.166 170.998C224.43 171.519 223.549 171.914 222.512 172.187C221.776 172.382 220.953 172.499 220.061 172.552H220.064ZM220.064 148.956V151.767C219.601 151.735 219.094 151.72 218.534 151.72H213.856V169.797H218.606C219.128 169.797 219.613 169.782 220.061 169.744V172.555C219.702 172.579 219.325 172.594 218.935 172.594H210.909V148.926H218.567C219.105 148.926 219.604 148.941 220.061 148.959L220.064 148.956ZM190.503 172.594V169.797H190.738V172.594H190.503ZM190.503 151.723H197.601V172.594H200.542V151.723H207.896V148.926H190.501V151.723H190.503ZM190.503 148.926V151.723H190.275V148.926H190.503ZM190.503 169.797H179.788V148.926H176.838V172.594H190.503V169.797ZM79.6928 172.997V170.318C81.9006 170.309 83.7154 169.488 85.1427 167.833C86.57 166.17 87.2892 163.817 87.2892 160.773C87.2892 158.854 86.9798 157.17 86.3693 155.733C85.7588 154.296 84.8611 153.186 83.6847 152.392C82.5083 151.6 81.1842 151.202 79.7206 151.202H79.69V148.505H79.7039C81.7557 148.505 83.6095 149.032 85.257 150.075C86.9045 151.123 88.1618 152.577 89.0232 154.441C89.8901 156.304 90.3167 158.427 90.3167 160.788C90.3167 163.149 89.8678 165.34 88.9563 167.236C88.0447 169.131 86.7568 170.559 85.0869 171.54C83.4171 172.511 81.6218 173 79.6872 173L79.6928 172.997ZM94.0856 172.594V148.926H97.1019L108.782 167.506V148.926H111.606V172.594H108.59L96.904 153.999V172.594H94.0856ZM117.048 172.594V148.926H119.989V172.594H117.048ZM141.039 164.291L143.988 165.092C143.369 167.657 142.26 169.62 140.657 170.972C139.054 172.323 137.097 173 134.772 173C132.447 173 130.432 172.479 128.923 171.446C127.424 170.403 126.283 168.899 125.497 166.932C124.717 164.96 124.326 162.84 124.326 160.579C124.326 158.118 124.761 155.972 125.651 154.131C126.534 152.297 127.792 150.908 129.431 149.954C131.064 148.997 132.857 148.526 134.822 148.526C137.044 148.526 138.912 149.132 140.434 150.337C141.95 151.541 143.001 153.234 143.598 155.424L140.707 156.145C140.191 154.42 139.441 153.169 138.463 152.386C137.476 151.594 136.249 151.205 134.755 151.205C133.049 151.205 131.622 151.641 130.473 152.509C129.325 153.387 128.516 154.552 128.054 156.027C127.591 157.488 127.354 159.004 127.354 160.564C127.354 162.584 127.627 164.333 128.179 165.837C128.731 167.336 129.584 168.463 130.752 169.199C131.915 169.944 133.172 170.318 134.532 170.318C136.18 170.318 137.571 169.815 138.717 168.805C139.857 167.786 140.629 166.288 141.033 164.291H141.039ZM146.614 164.989L149.388 164.724C149.513 165.914 149.823 166.882 150.299 167.645C150.784 168.407 151.529 169.011 152.544 169.485C153.55 169.95 154.69 170.183 155.956 170.183C157.074 170.183 158.066 170.003 158.927 169.656C159.78 169.299 160.427 168.808 160.848 168.195C161.266 167.574 161.481 166.897 161.481 166.167C161.481 165.437 161.275 164.777 160.87 164.218C160.466 163.667 159.797 163.199 158.869 162.828C158.267 162.581 156.948 162.192 154.905 161.671C152.867 161.144 151.434 160.653 150.617 160.196C149.55 159.605 148.763 158.868 148.242 157.991C147.721 157.114 147.462 156.133 147.462 155.038C147.462 153.849 147.777 152.73 148.418 151.697C149.051 150.655 149.984 149.863 151.205 149.327C152.435 148.791 153.787 148.52 155.287 148.52C156.934 148.52 158.384 148.809 159.649 149.374C160.907 149.933 161.877 150.763 162.554 151.859C163.232 152.954 163.599 154.205 163.65 155.586L160.826 155.813C160.672 154.32 160.157 153.186 159.281 152.427C158.406 151.667 157.118 151.285 155.412 151.285C153.706 151.285 152.332 151.626 151.515 152.327C150.706 153.019 150.294 153.858 150.294 154.835C150.294 155.689 150.589 156.39 151.161 156.931C151.727 157.482 153.204 158.041 155.596 158.618C157.988 159.195 159.627 159.699 160.525 160.126C161.813 160.762 162.774 161.571 163.385 162.543C164.004 163.514 164.31 164.639 164.31 165.905C164.31 167.171 163.973 168.351 163.296 169.47C162.618 170.58 161.64 171.443 160.377 172.064C159.106 172.685 157.678 172.997 156.089 172.997C154.082 172.997 152.39 172.685 151.035 172.058C149.675 171.437 148.607 170.498 147.829 169.246C147.057 167.995 146.645 166.567 146.617 164.989H146.614ZM79.69 148.505V151.202C77.6159 151.211 75.8346 151.971 74.3432 153.487C72.835 155.009 72.0851 157.558 72.0851 161.115C72.0851 163.973 72.8072 166.211 74.2484 167.857C75.6896 169.497 77.4988 170.318 79.676 170.318H79.69V172.997C77.5936 172.997 75.7259 172.461 74.0784 171.381C72.4225 170.3 71.1792 168.834 70.3261 166.968C69.4814 165.11 69.0549 163.137 69.0549 161.065C69.0549 157.134 70.0418 154.058 72.0266 151.838C74.0059 149.624 76.5566 148.514 79.69 148.505ZM38.2454 172.997V170.318C40.4588 170.309 42.2764 169.488 43.6953 167.833C45.1282 166.17 45.8502 163.817 45.8502 160.773C45.8502 158.854 45.5352 157.17 44.9247 155.733C44.3142 154.296 43.4249 153.186 42.2485 152.392C41.0637 151.6 39.7479 151.202 38.276 151.202H38.2454V148.505H38.2593C40.3111 148.505 42.1649 149.032 43.8124 150.075C45.4599 151.123 46.7172 152.577 47.5786 154.441C48.4455 156.304 48.872 158.427 48.872 160.788C48.872 163.149 48.4232 165.34 47.5117 167.236C46.6001 169.131 45.3122 170.559 43.6423 171.54C41.9725 172.511 40.1772 173 38.2426 173L38.2454 172.997ZM52.5518 172.594V148.926H55.4928V169.797H66.4457V172.594H52.5518ZM6.78906 164.989L9.56281 164.724C9.69384 165.914 9.99769 166.882 10.4828 167.645C10.9594 168.407 11.7038 169.011 12.7185 169.485C13.7248 169.95 14.865 170.183 16.1306 170.183C17.2568 170.183 18.2409 170.003 19.1023 169.656C19.9637 169.299 20.6021 168.808 21.023 168.195C21.4412 167.574 21.6558 166.897 21.6558 166.167C21.6558 165.437 21.4495 164.777 21.0453 164.218C20.6411 163.667 19.9721 163.199 19.0438 162.828C18.4416 162.581 17.1314 162.192 15.088 161.671C13.0446 161.144 11.609 160.653 10.7922 160.196C9.73286 159.605 8.93837 158.868 8.41707 157.991C7.89578 157.114 7.63652 156.133 7.63652 155.038C7.63652 153.849 7.95153 152.73 8.5927 151.697C9.2255 150.655 10.1594 149.863 11.3804 149.327C12.6098 148.791 13.9702 148.52 15.4616 148.52C17.1091 148.52 18.5643 148.809 19.8243 149.374C21.0899 149.933 22.0517 150.763 22.7291 151.859C23.4065 152.954 23.7745 154.205 23.8246 155.586L21.0007 155.813C20.8474 154.32 20.3317 153.186 19.4563 152.427C18.581 151.667 17.2931 151.285 15.587 151.285C13.8809 151.285 12.5122 151.626 11.6898 152.327C10.8814 153.019 10.4688 153.858 10.4688 154.835C10.4688 155.689 10.7643 156.39 11.3358 156.931C11.9017 157.482 13.3792 158.041 15.771 158.618C18.1628 159.195 19.8076 159.699 20.6996 160.126C21.9931 160.762 22.9493 161.571 23.5682 162.543C24.1787 163.514 24.4881 164.639 24.4881 165.905C24.4881 167.171 24.1508 168.351 23.4734 169.47C22.796 170.58 21.8175 171.443 20.5547 172.064C19.2919 172.685 17.8562 172.997 16.2728 172.997C14.2573 172.997 12.5735 172.685 11.2131 172.058C9.85274 171.437 8.78505 170.498 8.00728 169.246C7.23509 167.995 6.83088 166.567 6.79464 164.989H6.78906ZM38.2454 148.505V151.202C36.1713 151.211 34.39 151.971 32.8986 153.487C31.3988 155.009 30.6489 157.558 30.6489 161.115C30.6489 163.973 31.3709 166.211 32.8038 167.857C34.2534 169.497 36.0542 170.318 38.2314 170.318H38.2454V172.997C36.149 172.997 34.2813 172.461 32.6337 171.381C30.9779 170.3 29.7345 168.834 28.8815 166.968C28.0368 165.11 27.6103 163.137 27.6103 161.065C27.6103 157.134 28.6027 154.058 30.582 151.838C32.5613 149.624 35.112 148.514 38.2454 148.505Z" fill="white"/>
<path fill-rule="evenodd" clip-rule="evenodd" d="M143.893 69.083L133.147 80.4324L127.984 80.4471L127.769 114.469L117.031 125.818V80.4324H106.293L117.026 69.083H143.893Z" fill="white"/>
<path fill-rule="evenodd" clip-rule="evenodd" d="M172.811 69.083L162.065 80.4324H151.318V91.7818H162.065V103.128H151.318V114.469H162.065L172.811 125.818H151.318L140.574 114.469V80.4324L151.318 69.083H172.811Z" fill="white"/>
<path fill-rule="evenodd" clip-rule="evenodd" d="M202.079 69.083L191.341 80.4324H180.594V114.469H191.341L202.079 125.818H180.594L169.848 114.469V80.4324L180.594 69.083H202.079Z" fill="white"/>
<path fill-rule="evenodd" clip-rule="evenodd" d="M231.002 1L214.887 40.7154L231.002 23.687L247.124 40.7154L231.002 1Z" fill="white"/>
<path fill-rule="evenodd" clip-rule="evenodd" d="M247.129 63.4106L231.008 29.3655L214.892 63.4106L225.638 57.7315V91.7767H214.892V69.0809L204.145 80.4303V125.816L214.892 114.467V103.126H225.638V125.816L220.261 131.495H16.1212V142.844H225.638L236.385 131.495V57.7345L247.132 63.4136L247.129 63.4106ZM16.1212 103.126V91.7767H21.4903V80.4273H16.1212V69.078H21.4903L32.2369 80.4273V114.464L21.4903 125.813V103.123H16.1212V103.126ZM16.1212 131.492L10.7438 125.813V103.123H16.1212V91.7738H10.7438V80.4244H16.1212V69.075H10.7438L0 80.4303L0 131.495L10.7465 142.844H16.124V131.495L16.1212 131.492Z" fill="white"/>
<path fill-rule="evenodd" clip-rule="evenodd" d="M52.3774 69.0818H57.7465L68.493 80.4312V114.468L57.7465 125.817V103.127H52.3774V91.7776H57.7465V80.4282H52.3774V69.0789V69.0818ZM47.0083 114.468L36.2617 125.817V80.4312L47.0083 69.0818H52.3774V80.4312H47.0083V91.7805H52.3774V103.13H47.0083V114.47V114.468Z" fill="white"/>
<path fill-rule="evenodd" clip-rule="evenodd" d="M88.6703 112.215L99.4169 125.817L104.786 114.468L95.5559 103.289L104.786 91.7776V80.4282L94.0478 69.0789H88.6703V80.4282H94.0478V91.7776H88.6703V112.215ZM83.3012 69.0818L72.5547 80.4312V125.817L83.3012 114.468L83.3096 105.426L88.6703 112.215V91.7776H83.3012V80.4282H88.6703V69.0789H83.3012V69.0818Z" fill="white"/>
<path d="M256.033 19.7815C260.907 19.7815 264.859 15.6083 264.859 10.4606C264.859 5.31276 260.907 1.13965 256.033 1.13965C251.158 1.13965 247.207 5.31276 247.207 10.4606C247.207 15.6083 251.158 19.7815 256.033 19.7815Z" stroke="white" stroke-miterlimit="10"/>
<path d="M253.199 5.51639C253.84 5.39862 254.802 5.3103 255.792 5.3103C257.144 5.3103 258.064 5.54583 258.691 6.1052C259.207 6.56153 259.499 7.25339 259.499 8.09244C259.499 9.37311 258.677 10.2416 257.799 10.5802V10.6243C258.468 10.8893 258.872 11.5812 259.109 12.538C259.402 13.7745 259.653 14.9227 259.848 15.3054H258.078C257.938 15.011 257.715 14.2014 257.45 12.9649C257.186 11.6695 256.74 11.2573 255.764 11.2279H254.9V15.3054H253.199V5.51639ZM254.9 9.90304H255.917C257.074 9.90304 257.799 9.25535 257.799 8.26909C257.799 7.17978 257.074 6.67929 255.959 6.67929C255.415 6.67929 255.067 6.72345 254.9 6.76762V9.90304Z" fill="white"/>
</svg>
